<svg width="48" height="48" viewBox="0 0 48 48" fill="none" xmlns="http://www.w3.org/2000/svg">
<path d="M36.005 5.94226C34.5865 5.94226 33.4326 4.78829 33.4326 3.36975C33.4326 2.98144 33.1178 2.66663 32.7294 2.66663H30.2647C29.8762 2.66663 29.5615 2.98144 29.5615 3.36975C29.5615 3.75807 29.8762 4.07288 30.2647 4.07288H32.0885C32.3805 5.70442 33.6704 6.99424 35.3019 7.28627V24.0484C35.3019 24.4367 35.6166 24.7515 36.005 24.7515C36.3934 24.7515 36.7081 24.4367 36.7081 24.0484V6.64549C36.7081 6.25708 36.3934 5.94226 36.005 5.94226Z" fill="black" fill-opacity="0.32"/>
<path d="M38.8056 0H9.19409C8.80569 0 8.49097 0.314814 8.49097 0.703128V41.2714C8.49097 41.6597 8.80569 41.9745 9.19409 41.9745H14.3599C14.7483 41.9745 15.0631 41.6597 15.0631 41.2714C15.0631 40.883 14.7483 40.5682 14.3599 40.5682H9.89722V1.40635H38.1025V40.5683H35.8096L35.3415 39.3188C36.5536 38.3565 37.3334 36.8716 37.3334 35.2072C37.3334 34.3101 37.1068 33.4649 36.7083 32.7256V26.8904C36.7083 26.5021 36.3936 26.1873 36.0052 26.1873C35.6168 26.1873 35.3021 26.5021 35.3021 26.8904V31.0647C34.4127 30.3723 33.2962 29.9583 32.0844 29.9583C29.19 29.9583 26.8353 32.313 26.8353 35.2074C26.8353 35.9993 27.0126 36.7504 27.328 37.4243H15.9113C15.6192 35.7927 14.3293 34.5029 12.6978 34.2108V7.28637C14.3294 6.99434 15.6192 5.70443 15.9113 4.07298H27.4228C27.8112 4.07298 28.1259 3.75817 28.1259 3.36986C28.1259 2.98154 27.8112 2.66673 27.4228 2.66673H15.2703C14.8819 2.66673 14.5672 2.98154 14.5672 3.36986C14.5672 4.7883 13.4131 5.94237 11.9947 5.94237C11.6063 5.94237 11.2916 6.25718 11.2916 6.6455V34.8516C11.2916 35.2399 11.6063 35.5547 11.9947 35.5547C13.4132 35.5547 14.5672 36.7087 14.5672 38.1272C14.5672 38.5156 14.8819 38.8304 15.2703 38.8304H28.2916C28.4586 39.0051 28.6374 39.1683 28.8268 39.3186L28.3587 40.5681H17.2017C16.8133 40.5681 16.4986 40.8829 16.4986 41.2713C16.4986 41.6596 16.8133 41.9744 17.2017 41.9744H27.8319L26.3678 45.8831C26.2315 46.2468 26.4159 46.652 26.7796 46.7882L29.8987 47.9565C30.2565 48.0906 30.6697 47.9024 30.8037 47.5447L32.084 44.1266L33.3643 47.5447C33.4981 47.9023 33.9116 48.0906 34.2693 47.9565L37.3885 46.7882C37.563 46.7227 37.7046 46.5907 37.7818 46.421C37.859 46.2512 37.8658 46.0578 37.8002 45.8831L36.336 41.9744H38.8052C39.1936 41.9744 39.5084 41.6596 39.5084 41.2713V0.703128C39.5087 0.314814 39.1939 0 38.8056 0ZM29.7336 46.3932L27.9314 45.7182L30.0553 40.048C30.6432 40.2953 31.2856 40.4372 31.9587 40.453L29.7336 46.3932ZM28.2414 35.2071C28.2414 33.0882 29.9653 31.3644 32.0841 31.3644C34.203 31.3644 35.9268 33.0883 35.9268 35.2071C35.9268 37.326 34.2028 39.0498 32.0841 39.0498C29.9653 39.0499 28.2414 37.3261 28.2414 35.2071ZM34.4348 46.3932L32.835 42.1223L33.5363 40.2501C33.7333 40.1933 33.9261 40.1264 34.1128 40.0478L36.2369 45.718L34.4348 46.3932Z" fill="black" fill-opacity="0.32"/>
<path d="M17.4274 8.23083H16.7561C16.3677 8.23083 16.053 8.54565 16.053 8.93396C16.053 9.32228 16.3678 9.63709 16.7561 9.63709H17.4274C17.8158 9.63709 18.1305 9.32228 18.1305 8.93396C18.1305 8.54565 17.8158 8.23083 17.4274 8.23083Z" fill="black" fill-opacity="0.32"/>
<path d="M25.3705 8.23083H19.9441C19.5557 8.23083 19.241 8.54565 19.241 8.93396C19.241 9.32228 19.5558 9.63709 19.9441 9.63709H25.3705C25.7589 9.63709 26.0736 9.32228 26.0736 8.93396C26.0736 8.54565 25.7589 8.23083 25.3705 8.23083Z" fill="black" fill-opacity="0.32"/>
<path d="M17.4274 10.9387H16.7561C16.3677 10.9387 16.053 11.2535 16.053 11.6418C16.053 12.0302 16.3678 12.345 16.7561 12.345H17.4274C17.8158 12.345 18.1305 12.0302 18.1305 11.6418C18.1305 11.2535 17.8158 10.9387 17.4274 10.9387Z" fill="black" fill-opacity="0.32"/>
<path d="M25.3705 10.9387H19.9441C19.5557 10.9387 19.241 11.2535 19.241 11.6418C19.241 12.0302 19.5558 12.345 19.9441 12.345H25.3705C25.7589 12.345 26.0736 12.0302 26.0736 11.6418C26.0736 11.2535 25.7589 10.9387 25.3705 10.9387Z" fill="black" fill-opacity="0.32"/>
<path d="M32.5969 14.6116H15.4041C15.0157 14.6116 14.7009 14.9264 14.7009 15.3148C14.7009 15.7031 15.0156 16.0179 15.4041 16.0179H32.5969C32.9853 16.0179 33.3001 15.7031 33.3001 15.3148C33.3001 14.9264 32.9853 14.6116 32.5969 14.6116Z" fill="black" fill-opacity="0.32"/>
<path d="M17.7626 17.9315H17.0913C16.7029 17.9315 16.3882 18.2463 16.3882 18.6346C16.3882 19.0229 16.703 19.3377 17.0913 19.3377H17.7626C18.151 19.3377 18.4657 19.0229 18.4657 18.6346C18.4657 18.2463 18.151 17.9315 17.7626 17.9315Z" fill="black" fill-opacity="0.32"/>
<path d="M30.5731 17.9315H21.6599C21.2715 17.9315 20.9568 18.2463 20.9568 18.6346C20.9568 19.0229 21.2715 19.3377 21.6599 19.3377H30.5731C30.9615 19.3377 31.2763 19.0229 31.2763 18.6346C31.2763 18.2463 30.9615 17.9315 30.5731 17.9315Z" fill="black" fill-opacity="0.32"/>
<path d="M30.573 20.2596H28.4556C28.0672 20.2596 27.7524 20.5745 27.7524 20.9628C27.7524 21.3511 28.0672 21.6659 28.4556 21.6659H30.573C30.9614 21.6659 31.2761 21.3511 31.2761 20.9628C31.2761 20.5745 30.9614 20.2596 30.573 20.2596Z" fill="black" fill-opacity="0.32"/>
<path d="M26.0046 20.2596H17.0913C16.7029 20.2596 16.3882 20.5745 16.3882 20.9628C16.3882 21.3511 16.7029 21.6659 17.0913 21.6659H26.0045C26.3929 21.6659 26.7077 21.3511 26.7077 20.9628C26.7077 20.5745 26.3929 20.2596 26.0046 20.2596Z" fill="black" fill-opacity="0.32"/>
<path d="M26.0046 23.6603H17.0913C16.7029 23.6603 16.3882 23.9751 16.3882 24.3634C16.3882 24.7517 16.7029 25.0665 17.0913 25.0665H26.0045C26.3929 25.0665 26.7077 24.7517 26.7077 24.3634C26.7077 23.9751 26.3929 23.6603 26.0046 23.6603Z" fill="black" fill-opacity="0.32"/>
<path d="M26.0046 25.6351H17.0913C16.7029 25.6351 16.3882 25.9499 16.3882 26.3383C16.3882 26.7266 16.7029 27.0414 17.0913 27.0414H26.0045C26.3929 27.0414 26.7078 26.7266 26.7078 26.3383C26.7078 25.9499 26.393 25.6351 26.0046 25.6351Z" fill="black" fill-opacity="0.32"/>
<path d="M20.2096 32.5471H17.0913C16.7029 32.5471 16.3882 32.8619 16.3882 33.2502C16.3882 33.6385 16.703 33.9533 17.0913 33.9533H20.2096C20.598 33.9533 20.9128 33.6385 20.9128 33.2502C20.9128 32.8619 20.598 32.5471 20.2096 32.5471Z" fill="black" fill-opacity="0.32"/>
<path d="M17.7626 30.381H17.0913C16.7029 30.381 16.3882 30.6959 16.3882 31.0842C16.3882 31.4725 16.703 31.7873 17.0913 31.7873H17.7626C18.151 31.7873 18.4657 31.4725 18.4657 31.0842C18.4657 30.6959 18.151 30.381 17.7626 30.381Z" fill="black" fill-opacity="0.32"/>
</svg>
