<svg width="44" height="48" viewBox="0 0 44 48" xmlns="http://www.w3.org/2000/svg">
<path d="M41.1988 0H12.4003C11.0755 0.00140618 10.0018 1.07507 10.0004 2.39988L10.0005 2.40025L10.0004 2.40063V29.5992H1.20081C0.988568 29.5991 0.785047 29.6833 0.635055 29.8334C0.484968 29.9835 0.400785 30.187 0.400879 30.3991V42.3978C0.400317 45.4904 2.90631 47.9983 5.99897 47.9999C6.05522 47.9999 6.11221 47.9991 6.16846 47.9976H37.999C41.0901 47.9938 43.5949 45.4889 43.5987 42.3979V2.39997C43.5973 1.07507 42.5236 0.00140618 41.1988 0ZM6.12084 46.3976C5.03771 46.4405 3.98523 46.0321 3.21474 45.2696C2.43553 44.5178 1.99708 43.4805 2.00074 42.3979V31.1993H10.0004V42.1979C10.0371 44.4096 8.32854 46.2592 6.12084 46.3976ZM41.9987 42.3979C41.9961 44.6059 40.2069 46.3951 37.9989 46.3977H9.83315C10.9617 45.2915 11.5985 43.7782 11.6002 42.1979V2.40072L11.6002 2.40035L11.6002 2.39997C11.6005 1.95824 11.9585 1.60033 12.4002 1.60004H41.1987C41.6404 1.60033 41.9984 1.95834 41.9986 2.39997V42.3979H41.9987Z"/>
<path d="M38.799 12.0002H33.1993C32.7575 12.0002 32.3994 12.3584 32.3994 12.8002C32.3994 13.242 32.7575 13.6001 33.1993 13.6001H38.799C39.2409 13.6001 39.599 13.242 39.599 12.8002C39.599 12.3584 39.2409 12.0002 38.799 12.0002Z" />
<path d="M38.799 5.60052H33.1993C32.7575 5.60052 32.3994 5.95863 32.3994 6.40045C32.3994 6.84228 32.7575 7.20038 33.1993 7.20038H38.799C39.2409 7.20038 39.599 6.84228 39.599 6.40045C39.599 5.95863 39.2409 5.60052 38.799 5.60052Z" />
<path d="M38.799 8.80035H33.1993C32.7575 8.80035 32.3994 9.15846 32.3994 9.60028C32.3994 10.0421 32.7575 10.4002 33.1993 10.4002H38.799C39.2409 10.4002 39.599 10.0421 39.599 9.60028C39.599 9.15846 39.2409 8.80035 38.799 8.80035Z" />
<path d="M38.799 15.2H33.1993C32.7575 15.2 32.3994 15.5581 32.3994 15.9999C32.3994 16.4418 32.7575 16.7999 33.1993 16.7999H38.799C39.2409 16.7999 39.599 16.4418 39.599 15.9999C39.599 15.5581 39.2409 15.2 38.799 15.2Z" />
<path d="M38.799 18.3998H33.1993C32.7575 18.3998 32.3994 18.7579 32.3994 19.1998C32.3994 19.6416 32.7575 19.9997 33.1993 19.9997H38.799C39.2409 19.9997 39.599 19.6415 39.599 19.1998C39.599 18.758 39.2409 18.3998 38.799 18.3998Z" />
<path d="M38.7987 21.5997H13.9999C13.5581 21.5997 13.2 21.9578 13.2 22.3997C13.2 22.8415 13.5581 23.1996 13.9999 23.1996H38.7986C39.2404 23.1996 39.5985 22.8415 39.5985 22.3997C39.5985 21.9578 39.2405 21.5997 38.7987 21.5997Z" />
<path d="M38.7987 24.7996H13.9999C13.5581 24.7996 13.2 25.1578 13.2 25.5995C13.2 26.0413 13.5581 26.3994 13.9999 26.3994H38.7986C39.2404 26.3994 39.5985 26.0412 39.5985 25.5995C39.5986 25.1577 39.2405 24.7996 38.7987 24.7996Z" />
<path d="M38.7991 27.9994H28.3995C27.9577 27.9994 27.5996 28.3575 27.5996 28.7993C27.5996 29.2411 27.9577 29.5992 28.3995 29.5992H38.799C39.2408 29.5992 39.5989 29.2411 39.5989 28.7993C39.5989 28.3575 39.2409 27.9994 38.7991 27.9994Z" />
<path d="M23.5994 27.9994H13.9999C13.5581 27.9994 13.2 28.3575 13.2 28.7993C13.2 29.2411 13.5581 29.5992 13.9999 29.5992H23.5994C24.0412 29.5992 24.3993 29.2411 24.3993 28.7993C24.3993 28.3575 24.0412 27.9994 23.5994 27.9994Z" />
<path d="M38.7991 31.1993H28.3995C27.9577 31.1993 27.5996 31.5575 27.5996 31.9992C27.5996 32.4409 27.9577 32.7991 28.3995 32.7991H38.799C39.2408 32.7991 39.5989 32.441 39.5989 31.9992C39.5989 31.5574 39.2409 31.1993 38.7991 31.1993Z" />
<path d="M23.5994 31.1993H13.9999C13.5581 31.1993 13.2 31.5575 13.2 31.9992C13.2 32.4409 13.5581 32.7991 13.9999 32.7991H23.5994C24.0412 32.7991 24.3993 32.441 24.3993 31.9992C24.3993 31.5574 24.0412 31.1993 23.5994 31.1993Z" />
<path d="M38.7991 34.399H28.3995C27.9577 34.399 27.5996 34.7572 27.5996 35.199C27.5996 35.6408 27.9577 35.9989 28.3995 35.9989H38.799C39.2408 35.9989 39.5989 35.6408 39.5989 35.199C39.5989 34.7572 39.2409 34.399 38.7991 34.399Z" />
<path d="M23.5994 34.399H13.9999C13.5581 34.399 13.2 34.7572 13.2 35.199C13.2 35.6408 13.5581 35.9989 13.9999 35.9989H23.5994C24.0412 35.9989 24.3993 35.6408 24.3993 35.199C24.3993 34.7572 24.0412 34.399 23.5994 34.399Z" />
<path d="M38.7991 37.5989H28.3995C27.9577 37.5989 27.5996 37.957 27.5996 38.3988C27.5996 38.8406 27.9577 39.1987 28.3995 39.1987H38.799C39.2408 39.1987 39.5989 38.8406 39.5989 38.3988C39.5989 37.957 39.2409 37.5989 38.7991 37.5989Z" />
<path d="M23.5994 37.5989H13.9999C13.5581 37.5989 13.2 37.957 13.2 38.3988C13.2 38.8406 13.5581 39.1987 13.9999 39.1987H23.5994C24.0412 39.1987 24.3993 38.8406 24.3993 38.3988C24.3993 37.957 24.0412 37.5989 23.5994 37.5989Z" />
<path d="M38.7991 40.7988H28.3995C27.9577 40.7988 27.5996 41.1569 27.5996 41.5987C27.5996 42.0405 27.9577 42.3986 28.3995 42.3986H38.799C39.2408 42.3986 39.5989 42.0405 39.5989 41.5987C39.5989 41.1569 39.2409 40.7988 38.7991 40.7988Z" />
<path d="M23.5994 40.7988H13.9999C13.5581 40.7988 13.2 41.1569 13.2 41.5987C13.2 42.0405 13.5581 42.3986 13.9999 42.3986H23.5994C24.0412 42.3986 24.3993 42.0405 24.3993 41.5987C24.3993 41.1569 24.0412 40.7988 23.5994 40.7988Z" />
<path d="M13.9998 13.7239V18.3999C14.0009 19.2831 14.7166 19.9986 15.5998 19.9998H28.3991C29.2823 19.9987 29.9978 19.2831 29.9991 18.3999V13.7239C30.5077 13.255 30.7976 12.5952 30.799 11.9033V8.80037C30.7979 7.91719 30.0822 7.20163 29.199 7.20042H27.5991V5.60056C27.598 4.71739 26.8823 4.00183 25.9991 4.00061H17.9996C17.1164 4.00174 16.4008 4.71739 16.3996 5.60056V7.20051H14.7997C13.9165 7.20163 13.2009 7.91729 13.1997 8.80046V11.9034C13.2013 12.5952 13.4913 13.255 13.9998 13.7239ZM28.3991 18.3999H15.5998V14.3903C15.6326 14.3915 15.6634 14.4001 15.6966 14.4001H21.1995V15.2C21.1995 15.6418 21.5576 15.9999 21.9994 15.9999C22.4412 15.9999 22.7993 15.6418 22.7993 15.2V14.4001H28.3022C28.3354 14.4001 28.3662 14.3914 28.399 14.3903V18.3999H28.3991ZM17.9997 5.60056H25.9992V7.20051H17.9997V5.60056ZM14.7998 8.80037H29.1991V11.9033C29.1986 12.3984 28.7973 12.7996 28.3023 12.8002H15.6966C15.2015 12.7996 14.8003 12.3984 14.7998 11.9033V8.80037H14.7998Z" />
</svg>
