<svg width="46" height="48" viewBox="0 0 46 48" fill="none" xmlns="http://www.w3.org/2000/svg">
<path d="M45.0514 27.4285C45.0514 26.5536 44.7922 25.7385 44.3479 25.0541C44.5281 23.9266 44.6204 22.7735 44.6204 21.6208C44.6205 9.69911 34.9214 0 22.9996 0C11.0779 0 1.37882 9.69911 1.37882 21.6208C1.37882 22.7738 1.4711 23.9271 1.65135 25.0549C1.20743 25.7391 0.948486 26.5539 0.948486 27.4284C0.948486 29.6066 2.54909 31.4177 4.63575 31.7483C5.74927 40.8928 13.5598 48 23 48C32.4401 48 40.2507 40.8929 41.3642 31.7483C43.4509 31.4178 45.0514 29.6068 45.0514 27.4285ZM2.59647 27.4285C2.59647 26.2124 3.39698 25.1801 4.49866 24.8299V29.4989C4.49866 29.6766 4.50175 29.8535 4.50679 30.03C3.401 29.6824 2.59647 28.6476 2.59647 27.4285ZM23.0001 46.352C13.7071 46.352 6.14674 38.7917 6.14674 29.4988L6.14664 20.9783C6.14664 19.7055 6.81407 18.5794 7.93233 17.966C8.45361 17.6802 9.01599 17.5379 9.5762 17.5379C10.2061 17.5379 10.8332 17.718 11.3946 18.0758C14.8592 20.2841 18.8722 21.4514 22.9996 21.4514C27.1272 21.4514 31.1404 20.2841 34.6053 18.0757C35.6657 17.3997 36.9599 17.3586 38.0672 17.9659C39.1853 18.5792 39.8531 19.7053 39.8531 20.9781L39.8534 29.4989C39.8534 38.7917 32.2929 46.352 23.0001 46.352ZM38.8596 16.5209C37.2166 15.6199 35.2952 15.6816 33.7195 16.686C30.5197 18.7255 26.8128 19.8035 22.9996 19.8035C19.1865 19.8035 15.4799 18.7255 12.2804 16.6861C10.7046 15.6816 8.78259 15.62 7.13986 16.5211C5.4859 17.4284 4.49855 19.0945 4.49866 20.9783V23.1332C4.00838 23.227 3.54725 23.403 3.12949 23.6462C3.06192 22.9751 3.0268 22.2979 3.0268 21.6207C3.0268 10.6078 11.9866 1.64798 22.9996 1.64798C34.0127 1.64798 42.9725 10.6078 42.9725 21.6208C42.9725 22.2979 42.9374 22.9749 42.8699 23.6459C42.4522 23.4028 41.9912 23.227 41.5011 23.1331L41.501 20.978C41.5009 19.0943 40.5135 17.428 38.8596 16.5209ZM41.4932 30.03C41.4983 29.8535 41.5014 29.6766 41.5014 29.4989L41.5011 24.8299C42.6029 25.18 43.4034 26.2124 43.4034 27.4285C43.4034 28.6476 42.5991 29.6824 41.4932 30.03Z" fill="black" fill-opacity="0.32"/>
<path d="M15.4598 30.9303C16.2256 30.9303 16.8464 30.3095 16.8464 29.5437C16.8464 28.778 16.2256 28.1572 15.4598 28.1572C14.694 28.1572 14.0732 28.778 14.0732 29.5437C14.0732 30.3095 14.694 30.9303 15.4598 30.9303Z" fill="black" fill-opacity="0.32"/>
<path d="M30.7996 30.9302C31.5653 30.9302 32.186 30.3094 32.186 29.5437C32.186 28.778 31.5653 28.1572 30.7996 28.1572C30.0338 28.1572 29.4131 28.778 29.4131 29.5437C29.4131 30.3094 30.0338 30.9302 30.7996 30.9302Z" fill="black" fill-opacity="0.32"/>
<path d="M13.2764 27.649C13.3951 27.649 13.5157 27.6233 13.6301 27.5688L16.7496 26.0834C17.1605 25.8878 17.335 25.396 17.1393 24.9852C16.9437 24.5744 16.4521 24.3993 16.0411 24.5955L12.9216 26.081C12.5107 26.2766 12.3362 26.7683 12.5319 27.1792C12.6731 27.4757 12.9684 27.649 13.2764 27.649Z" fill="black" fill-opacity="0.32"/>
<path d="M29.2501 26.0833L32.3696 27.5688C32.484 27.6233 32.6046 27.649 32.7233 27.649C33.0313 27.649 33.3267 27.4756 33.4679 27.179C33.6635 26.7682 33.4891 26.2765 33.0783 26.0809L29.9587 24.5954C29.5475 24.3993 29.056 24.5743 28.8606 24.9851C28.6649 25.396 28.8392 25.8878 29.2501 26.0833Z" fill="black" fill-opacity="0.32"/>
<path d="M32.5233 33.4006C30.4257 34.6821 28.0175 35.3596 25.5596 35.3596H20.4409C17.983 35.3596 15.5749 34.6822 13.477 33.4006C13.0888 33.1636 12.5815 33.2859 12.3443 33.6743C12.1071 34.0626 12.2297 34.5697 12.618 34.807C14.9746 36.2466 17.6797 37.0075 20.4409 37.0075H25.5596C28.3209 37.0075 31.0259 36.2465 33.3826 34.807C33.771 34.5697 33.8933 34.0625 33.6561 33.6742C33.4189 33.2861 32.9118 33.1635 32.5233 33.4006Z" fill="black" fill-opacity="0.32"/>
<path d="M25.5591 37.8848H20.4404C19.9854 37.8848 19.6165 38.2537 19.6165 38.7088C19.6165 39.1638 19.9854 39.5327 20.4404 39.5327H25.5591C26.0141 39.5327 26.3831 39.1638 26.3831 38.7088C26.3831 38.2537 26.0141 37.8848 25.5591 37.8848Z" fill="black" fill-opacity="0.32"/>
</svg>
