<svg width="122" height="18" viewBox="0 0 122 18" fill="none" xmlns="http://www.w3.org/2000/svg">
<path d="M0.577881 15.9536C0.577881 15.4703 0.718839 15.0676 1.00076 14.7454C1.29274 14.4232 1.72568 14.2621 2.29958 14.2621C2.87348 14.2621 3.30643 14.4232 3.59841 14.7454C3.90046 15.0676 4.05149 15.4703 4.05149 15.9536C4.05149 16.4168 3.90046 16.8044 3.59841 17.1165C3.30643 17.4286 2.87348 17.5847 2.29958 17.5847C1.72568 17.5847 1.29274 17.4286 1.00076 17.1165C0.718839 16.8044 0.577881 16.4168 0.577881 15.9536Z" fill="#2B87DB"/>
<path d="M19.2448 1.0775H22.0388V17.4186H19.2448V5.50258L11.7085 17.4186H8.91455V1.0775H11.7085V13.0086L19.2448 1.0775Z" fill="#212121"/>
<path d="M39.8901 17.4186H37.0961V3.38821H29.575V17.4186H26.7659V1.0775H39.8901V17.4186Z" fill="#212121"/>
<path d="M43.6355 9.09701C43.6355 7.49613 43.9477 6.05634 44.5719 4.77765C45.2062 3.49896 46.0822 2.51226 47.1998 1.81753C48.3274 1.12281 49.6112 0.775452 51.0509 0.775452C53.2761 0.775452 55.0733 1.54569 56.4426 3.08616C57.822 4.62663 58.5116 6.67555 58.5116 9.23294V9.42927C58.5116 11.0201 58.2046 12.4498 57.5904 13.7184C56.9863 14.977 56.1154 15.9586 54.9776 16.6634C53.85 17.3682 52.5511 17.7206 51.0811 17.7206C48.8661 17.7206 47.0689 16.9504 45.6895 15.4099C44.3202 13.8694 43.6355 11.8306 43.6355 9.29335V9.09701ZM46.4446 9.42927C46.4446 11.2416 46.8625 12.6965 47.6982 13.7939C48.5439 14.8914 49.6716 15.4401 51.0811 15.4401C52.5008 15.4401 53.6285 14.8864 54.4641 13.7788C55.2998 12.6612 55.7177 11.1006 55.7177 9.09701C55.7177 7.30483 55.2897 5.85498 54.4339 4.74745C53.5882 3.62985 52.4605 3.07105 51.0509 3.07105C49.6716 3.07105 48.559 3.61978 47.7133 4.71724C46.8675 5.8147 46.4446 7.38538 46.4446 9.42927Z" fill="#212121"/>
<path d="M73.8257 3.3429H68.3435V17.4186H65.5495V3.3429H60.1729V1.0775H73.8257V3.3429Z" fill="#212121"/>
<path d="M82.1171 17.7206C79.902 17.7206 78.0998 16.9957 76.7103 15.5458C75.3209 14.0859 74.6262 12.1377 74.6262 9.70112V9.18763C74.6262 7.56661 74.9333 6.12179 75.5474 4.85317C76.1717 3.57448 77.0376 2.5777 78.1451 1.86284C79.2627 1.13792 80.4709 0.775452 81.7697 0.775452C83.8942 0.775452 85.5454 1.47521 86.7234 2.87472C87.9014 4.27423 88.4904 6.27785 88.4904 8.88557V10.0485H77.4202C77.4604 11.6594 77.9286 12.9633 78.8247 13.9601C79.7309 14.9468 80.8787 15.4401 82.2681 15.4401C83.2548 15.4401 84.0905 15.2388 84.7752 14.836C85.4598 14.4333 86.0589 13.8997 86.5724 13.2351L88.279 14.5642C86.9097 16.6685 84.8557 17.7206 82.1171 17.7206ZM81.7697 3.07105C80.6421 3.07105 79.6956 3.48386 78.9304 4.30947C78.1652 5.12501 77.692 6.27282 77.5108 7.75288H85.6964V7.54144C85.6159 6.12179 85.2333 5.02433 84.5486 4.24906C83.864 3.46372 82.9377 3.07105 81.7697 3.07105Z" fill="#212121"/>
<path d="M96.8271 10.4563H94.7882V17.4186H91.9791V1.0775H94.7882V7.99452H96.6156L102.113 1.0775H105.496L99.0321 8.93088L106.04 17.4186H102.491L96.8271 10.4563Z" fill="#212121"/>
<path d="M118.53 17.4186C118.368 17.0964 118.238 16.5225 118.137 15.6969C116.838 17.046 115.288 17.7206 113.485 17.7206C111.874 17.7206 110.55 17.2675 109.513 16.3614C108.486 15.4452 107.973 14.2873 107.973 12.8878C107.973 11.1862 108.617 9.86725 109.906 8.93088C111.205 7.98445 113.027 7.51123 115.373 7.51123H118.092V6.22751C118.092 5.25087 117.8 4.4756 117.216 3.9017C116.632 3.31773 115.771 3.02575 114.633 3.02575C113.636 3.02575 112.801 3.27746 112.126 3.78088C111.451 4.2843 111.114 4.89344 111.114 5.6083H108.305C108.305 4.79276 108.592 4.00742 109.166 3.25229C109.75 2.48709 110.535 1.88298 111.522 1.43997C112.519 0.996957 113.611 0.775452 114.799 0.775452C116.682 0.775452 118.157 1.24867 119.224 2.1951C120.292 3.13147 120.845 4.42526 120.886 6.07648V13.5976C120.886 15.0978 121.077 16.2909 121.459 17.1769V17.4186H118.53ZM113.893 15.2891C114.769 15.2891 115.6 15.0626 116.385 14.6095C117.17 14.1564 117.739 13.5674 118.092 12.8425V9.48968H115.902C112.478 9.48968 110.767 10.4915 110.767 12.4951C110.767 13.3711 111.059 14.0557 111.643 14.5491C112.227 15.0424 112.977 15.2891 113.893 15.2891Z" fill="#212121"/>
</svg>
