<svg width="78" height="28" viewBox="0 0 78 28" fill="none" xmlns="http://www.w3.org/2000/svg">
<g clip-path="url(#clip0)">
<path fill-rule="evenodd" clip-rule="evenodd" d="M13.7705 6.39116C12.6785 6.39116 11.7934 5.50591 11.7934 4.41408C11.7934 3.32191 12.6785 2.43684 13.7705 2.43684C14.8625 2.43684 15.7477 3.32191 15.7477 4.41408C15.7477 5.50591 14.8625 6.39116 13.7705 6.39116ZM13.7705 0.111816C11.3889 0.111816 9.45848 2.04228 9.45848 4.42399C9.45848 5.23616 9.68351 5.99608 10.0743 6.64452C10.154 6.77718 10.2408 6.90506 10.334 7.02782L10.6203 7.42494L13.7705 11.2237L17.2075 7.0273C17.7564 6.30374 18.0825 5.40194 18.0825 4.42399C18.0825 2.04228 16.152 0.111816 13.7705 0.111816Z" fill="#0468FF"/>
<path fill-rule="evenodd" clip-rule="evenodd" d="M15.4168 20.1462V12.9099H12.2226V16.3087L9.03021 12.4735L0.141235 23.1525L3.09814 25.6136L9.03021 18.4871L14.9621 25.6136L17.919 23.1525L15.4168 20.1462Z" fill="#0468FF"/>
<path fill-rule="evenodd" clip-rule="evenodd" d="M35.0066 12.9002H32.1739V22.7635H26.5752V12.9002H23.7426V25.3832H34.1733V27.8884H36.7396V22.7635H35.0066V12.9002Z" fill="#152242"/>
<path fill-rule="evenodd" clip-rule="evenodd" d="M41.5536 21.3041V12.9H38.721V25.3832H41.5536L47.4856 16.979V25.3832H50.3183V12.9H47.4856L41.5536 21.3041Z" fill="#152242"/>
<path fill-rule="evenodd" clip-rule="evenodd" d="M74.7258 12.9002V17.8053H68.9438V12.9002H66.1108V25.3832H68.9438V20.4428H74.7258V25.3832H77.5415V12.9002H74.7258Z" fill="#152242"/>
<path fill-rule="evenodd" clip-rule="evenodd" d="M60.5499 20.1124C60.5499 21.0922 60.2728 21.859 59.7261 22.3915C59.1727 22.9302 58.3691 23.2035 57.3375 23.2035C56.0475 23.2035 55.3369 22.6222 55.3369 21.5665C55.3369 20.4655 56.2662 19.8082 57.8222 19.8082H60.5499V20.1124ZM58.1859 12.662C56.7058 12.662 55.431 13.0581 54.4984 13.8075C53.6269 14.508 53.1104 15.4868 53.0406 16.5653H55.8325C55.9604 15.9862 56.5793 15.0827 58.1859 15.0827C59.6661 15.0827 60.5499 15.9665 60.5499 17.4468V17.5087H57.701C56.0142 17.5087 54.711 17.8902 53.8281 18.6424C52.982 19.3631 52.5529 20.3876 52.5529 21.6876C52.5529 22.8083 52.9941 23.8139 53.7955 24.519C54.6171 25.242 55.7583 25.6241 57.0954 25.6241C59.1901 25.6241 60.3296 24.602 60.7219 24.1642L60.9162 25.2337L60.9432 25.3817H61.0938H63.1535H63.3341V25.2014V17.4468C63.3341 14.4955 61.3613 12.662 58.1859 12.662Z" fill="#152242"/>
</g>
<defs>
<clipPath id="clip0">
<path d="M0 0H77.6829V28H0V0Z" fill="white"/>
</clipPath>
</defs>
</svg>
