<svg width="106" height="38" viewBox="0 0 106 38" fill="none" xmlns="http://www.w3.org/2000/svg">
<path d="M18.5647 0C15.3207 0 12.6912 2.62977 12.6912 5.87349C12.6912 6.98023 12.9977 8.01488 13.53 8.8986C13.6388 9.07907 13.757 9.25325 13.8837 9.42046L14.274 9.9614L18.5649 15.136L23.2465 9.41977C23.9942 8.43419 24.4384 7.20605 24.4384 5.87372C24.4384 2.62977 21.8086 0 18.5647 0ZM18.5647 8.55326C17.0772 8.55326 15.8716 7.34744 15.8716 5.86023C15.8716 4.37302 17.0774 3.16721 18.5647 3.16721C20.0519 3.16721 21.2577 4.37302 21.2577 5.86023C21.2577 7.34744 20.0521 8.55326 18.5647 8.55326Z" fill="#2B87DB"/>
<path d="M20.8072 27.2895V17.4327H16.4563V22.0623L12.1077 16.8383L0 31.3844L4.02767 34.7367L12.1077 25.0292L20.1879 34.7367L24.2156 31.3844L20.8072 27.2895Z" fill="#2B87DB"/>
<path d="M47.4911 17.4193H43.6323V30.8544H36.0063V17.4193H32.1479V34.4227H46.3558V37.8351H49.8516V30.8544H47.4911V17.4193Z" fill="#212121"/>
<path d="M56.4088 28.8667V17.4193H52.5504V34.4227H56.4088L64.4888 22.9753V34.4227H68.3474V17.4193H64.4888L56.4088 28.8667Z" fill="#212121"/>
<path d="M101.593 17.4193V24.1009H93.7177V17.4193H89.8588V34.4227H93.7177V27.6932H101.593V34.4227H105.429V17.4193H101.593Z" fill="#212121"/>
<path d="M79.0639 17.0951C77.0481 17.0951 75.3111 17.6346 74.0411 18.6551C72.8539 19.6093 72.1504 20.9425 72.0553 22.4116H75.8586C76.0325 21.6228 76.8758 20.3921 79.0639 20.3921C81.0802 20.3921 82.2839 21.596 82.2839 23.6123V23.6967H78.4037C76.1055 23.6967 74.3307 24.2163 73.1281 25.2409C71.9755 26.2225 71.3914 27.6183 71.3914 29.3888C71.3914 30.9153 71.9923 32.2851 73.0839 33.2456C74.203 34.2304 75.7574 34.7509 77.5786 34.7509C80.4321 34.7509 81.9841 33.3586 82.5186 32.7623L82.7834 34.2188L82.82 34.4207H83.0251H85.8306H86.0765V34.1749V23.6121C86.0765 19.5923 83.3895 17.0951 79.0639 17.0951ZM82.2841 27.2432C82.2841 28.5781 81.9067 29.6223 81.162 30.3476C80.4081 31.0816 79.3134 31.4539 77.9086 31.4539C76.1514 31.4539 75.1834 30.6621 75.1834 29.2239C75.1834 27.7244 76.4493 26.829 78.5688 26.829H82.2841V27.2432Z" fill="#212121"/>
</svg>
