<svg width="107" height="39" viewBox="0 0 107 39" fill="none" xmlns="http://www.w3.org/2000/svg">
<g clip-path="url(#clip0)">
<path fill-rule="evenodd" clip-rule="evenodd" d="M18.9674 8.80318C17.4633 8.80318 16.2442 7.58385 16.2442 6.07997C16.2442 4.57562 17.4633 3.35653 18.9674 3.35653C20.4715 3.35653 21.6908 4.57562 21.6908 6.07997C21.6908 7.58385 20.4715 8.80318 18.9674 8.80318ZM18.9674 0.154053C15.6871 0.154053 13.0281 2.81306 13.0281 6.09361C13.0281 7.21229 13.338 8.25901 13.8763 9.15216C13.9861 9.33489 14.1056 9.51103 14.234 9.68011L14.6284 10.2271L18.9674 15.4595L23.7015 9.6794C24.4576 8.68278 24.9067 7.44063 24.9067 6.09361C24.9067 2.81306 22.2477 0.154053 18.9674 0.154053Z" fill="#0468FF"/>
<path fill-rule="evenodd" clip-rule="evenodd" d="M21.235 27.7492V17.782H16.8353V22.4634L12.4381 17.1809L0.194519 31.89L4.26734 35.2799L12.4381 25.4639L20.6087 35.2799L24.6815 31.89L21.235 27.7492Z" fill="#0468FF"/>
<path fill-rule="evenodd" clip-rule="evenodd" d="M48.2179 17.7686H44.3161V31.3543H36.6046V17.7686H32.7029V34.9626H47.0701V38.4132H50.6049V31.3543H48.2179V17.7686Z" fill="#152242"/>
<path fill-rule="evenodd" clip-rule="evenodd" d="M57.2357 29.3441V17.7683H53.334V34.9626H57.2357L65.4065 23.3866V34.9626H69.3081V17.7683H65.4065L57.2357 29.3441Z" fill="#152242"/>
<path fill-rule="evenodd" clip-rule="evenodd" d="M102.927 17.7686V24.5248H94.9628V17.7686H91.0607V34.9626H94.9628V28.1577H102.927V34.9626H106.805V17.7686H102.927Z" fill="#152242"/>
<path fill-rule="evenodd" clip-rule="evenodd" d="M83.401 27.7028C83.401 29.0524 83.0193 30.1085 82.2663 30.842C81.5042 31.584 80.3972 31.9605 78.9764 31.9605C77.1995 31.9605 76.2207 31.1597 76.2207 29.7057C76.2207 28.1891 77.5007 27.2837 79.644 27.2837H83.401V27.7028ZM80.1449 17.4407C78.1063 17.4407 76.3503 17.9863 75.0658 19.0184C73.8653 19.9833 73.1539 21.3315 73.0577 22.817H76.9034C77.0795 22.0193 77.932 20.7748 80.1449 20.7748C82.1838 20.7748 83.401 21.9923 83.401 24.0312V24.1165H79.477C77.1536 24.1165 75.3586 24.6419 74.1426 25.678C72.9771 26.6707 72.3861 28.0819 72.3861 29.8724C72.3861 31.416 72.9938 32.8012 74.0976 33.7724C75.2293 34.7683 76.8011 35.2946 78.6429 35.2946C81.5281 35.2946 83.0976 33.8867 83.638 33.2837L83.9057 34.7568L83.9428 34.9607H84.1502H86.9873H87.2361V34.7124V24.0312C87.2361 19.9661 84.5187 17.4407 80.1449 17.4407Z" fill="#152242"/>
</g>
<defs>
<clipPath id="clip0">
<path d="M0 0H107V38.567H0V0Z" fill="white"/>
</clipPath>
</defs>
</svg>
